<svg id="Capa_1" enable-background="new 0 0 512 512" height="512" viewBox="0 0 512 512" width="512" xmlns="http://www.w3.org/2000/svg"><g><path d="m308.442 92.923c0 8.561-2.07 16.668-5.755 23.811 11.31 2.126 21.487 7.683 29.339 15.534 10.176 10.205 16.498 24.236 16.498 39.685v49.919h27.127c8.476 0 16.158 3.458 21.714 9.014 5.585 5.584 9.043 13.267 9.043 21.742 0 8.447-3.458 16.157-9.043 21.713-5.556 5.584-13.238 9.043-21.714 9.043h-19.134v54.736h133.429c1.928 0 3.713-.793 4.989-2.069 1.275-1.275 2.069-3.061 2.069-4.988v-242.619c0-1.956-.794-3.714-2.069-4.989-1.276-1.275-3.061-2.069-4.989-2.069h-181.504zm-14.997-14.655c-11.82 1.871-31.946 2.069-48.443-12.812-5.67 3.401-15.023 7.427-26.419 6.208v21.26c0 10.262 4.195 19.644 10.998 26.419 6.774 6.774 16.129 10.998 26.419 10.998s19.645-4.224 26.447-10.998c6.775-6.775 10.998-16.157 10.998-26.419zm-74.862-21.685c8.05 1.389 16.299-1.248 22.394-6.549 3.118-2.692 7.852-2.353 10.545.766 13.748 15.789 32.938 14.201 41.924 12.303v-18.341c0-4.847-1.984-9.269-5.188-12.472-3.203-3.203-7.625-5.188-12.472-5.188h-39.572c-4.847 0-9.241 1.984-12.444 5.188-3.203 3.203-5.187 7.625-5.187 12.472zm122.939 226.8h-68.543c-4.139 0-7.483-3.373-7.483-7.512s3.345-7.512 7.483-7.512h102.672c4.337 0 8.249-1.758 11.112-4.621s4.649-6.803 4.649-11.111c0-4.337-1.786-8.277-4.649-11.141-2.863-2.835-6.775-4.62-11.112-4.62-79.768 0-159.535 0-239.303 0-4.309 0-8.249 1.785-11.112 4.62-2.863 2.863-4.621 6.804-4.621 11.141 0 4.308 1.758 8.248 4.621 11.111s6.804 4.621 11.112 4.621h102.672c4.139 0 7.512 3.373 7.512 7.512s-3.373 7.512-7.512 7.512h-68.515v62.248 132.208c0 1.928.794 3.686 2.069 4.989 1.275 1.275 3.062 2.069 4.989 2.069h61.456c4.139 0 7.512 3.373 7.512 7.512s-3.373 7.483-7.512 7.483h-61.456c-6.066 0-11.594-2.466-15.591-6.463-3.996-3.997-6.463-9.524-6.463-15.591v-124.723h-133.455c-6.066 0-11.594-2.467-15.562-6.464-3.997-3.996-6.492-9.524-6.492-15.59v-242.617c0-6.095 2.495-11.594 6.491-15.591 3.969-3.997 9.496-6.491 15.562-6.491h181.504v-21.6c0-8.985 3.686-17.149 9.61-23.073 5.896-5.896 14.061-9.581 23.046-9.581h39.572c8.985 0 17.149 3.685 23.073 9.581 5.897 5.924 9.583 14.088 9.583 23.073v21.601h181.504c6.066 0 11.594 2.494 15.591 6.491s6.464 9.496 6.464 15.59v242.617c0 6.066-2.466 11.594-6.463 15.59-3.997 3.997-9.524 6.464-15.591 6.464h-133.428v124.724c0 6.066-2.495 11.594-6.491 15.591-3.969 3.997-9.496 6.463-15.562 6.463h-61.484c-4.139 0-7.483-3.345-7.483-7.483s3.345-7.512 7.483-7.512h61.484c1.928 0 3.686-.794 4.961-2.069 1.304-1.304 2.098-3.061 2.098-4.989v-132.209-62.248zm-186.011 0h-19.162c-8.448 0-16.13-3.459-21.714-9.043-5.557-5.556-9.015-13.266-9.015-21.713 0-8.476 3.458-16.158 9.015-21.742 5.584-5.556 13.266-9.014 21.714-9.014h27.156v-49.919c0-15.448 6.293-29.479 16.497-39.685 7.853-7.852 18-13.408 29.339-15.534-3.686-7.143-5.783-15.25-5.783-23.811v-11.536h-181.504c-1.928 0-3.685.794-4.961 2.069-1.304 1.275-2.098 3.033-2.098 4.989v242.617c0 1.928.794 3.713 2.098 4.988 1.275 1.276 3.033 2.069 4.961 2.069h133.457zm66.219 30.897h68.569c6.066 0 11.595 2.494 15.592 6.491s6.463 9.496 6.463 15.591v95.556c0 6.066-2.466 11.594-6.463 15.591-3.997 3.996-9.525 6.463-15.592 6.463h-68.569c-6.095 0-11.595-2.467-15.592-6.463-3.997-3.997-6.491-9.524-6.491-15.591v-95.556c0-6.095 2.494-11.594 6.491-15.591s9.497-6.491 15.592-6.491zm68.569 15.024h-68.569c-1.956 0-3.714.794-4.989 2.069s-2.069 3.033-2.069 4.989v95.556c0 1.928.794 3.685 2.069 4.989 1.275 1.275 3.033 2.069 4.989 2.069h68.569c1.928 0 3.686-.794 4.961-2.069 1.305-1.305 2.098-3.061 2.098-4.989v-95.556c0-1.956-.793-3.714-2.098-4.989-1.276-1.275-3.033-2.069-4.961-2.069zm162.399-44.618c0-4.139 3.345-7.512 7.483-7.512 4.139 0 7.512 3.373 7.512 7.512v9.128h9.128c4.139 0 7.484 3.345 7.484 7.483 0 4.139-3.346 7.512-7.484 7.512h-9.128v9.127c0 4.139-3.373 7.483-7.512 7.483s-7.483-3.345-7.483-7.483v-9.127h-9.128c-4.139 0-7.512-3.373-7.512-7.512s3.373-7.483 7.512-7.483h9.128zm-379.705-171.071c0-4.139 3.374-7.483 7.512-7.483 4.139 0 7.513 3.345 7.513 7.483v25.768h25.738c4.139 0 7.483 3.345 7.483 7.483s-3.345 7.512-7.483 7.512h-25.738v25.738c0 4.139-3.374 7.512-7.513 7.512-4.138 0-7.512-3.373-7.512-7.512v-25.738h-25.738c-4.14 0-7.484-3.373-7.484-7.512s3.345-7.483 7.484-7.483h25.738zm197.691 29.622 12.756 37.645c.992 2.948.057 6.123-2.183 8.051l-20.154 18.736c-2.892 2.693-7.342 2.665-10.205 0l-20.324-18.907c-2.239-2.069-2.92-5.188-2.013-7.88l12.784-37.645c-8.163-2.381-15.534-6.718-21.515-12.443-11.227.142-21.261 4.109-29.227 12.104-7.483 7.455-12.104 17.745-12.104 29.055v49.919h22.79v-52.073c0-4.166 3.346-7.512 7.484-7.512s7.513 3.346 7.513 7.512v52.073h79.455v-52.073c0-4.166 3.346-7.512 7.483-7.512 4.139 0 7.513 3.346 7.513 7.512v52.073h22.79v-49.919c0-11.31-4.648-21.6-12.103-29.055-7.994-7.994-18-11.962-29.227-12.104-6.007 5.726-13.349 10.062-21.513 12.443zm-2.977 37.871-11.707-34.525-11.707 34.525 11.707 10.857z"/></g></svg>